<svg width="93" height="30" viewBox="0 0 93 30" fill="none" xmlns="http://www.w3.org/2000/svg">
<path d="M0.84 0.999998H7.24L11 27.56H11.48L15.24 0.999998H21.64V29H18.52V2.44H18.04L14.28 29H8.2L4.44 2.44H3.96V29H0.84V0.999998ZM35.8922 26.44C37.0389 26.44 38.0122 26.2533 38.8122 25.88C39.6389 25.48 40.3055 24.96 40.8122 24.32C41.3455 23.6533 41.7322 22.9067 41.9722 22.08C42.2389 21.2267 42.3722 20.3333 42.3722 19.4V18.92H45.7322V19.4C45.7322 20.8133 45.5189 22.1467 45.0922 23.4C44.6655 24.6267 44.0389 25.7067 43.2122 26.64C42.3855 27.5467 41.3589 28.2667 40.1322 28.8C38.9055 29.3067 37.4922 29.56 35.8922 29.56C32.7989 29.56 30.3855 28.5867 28.6522 26.64C26.9189 24.6933 26.0522 21.8533 26.0522 18.12V11.88C26.0522 8.25333 26.9189 5.44 28.6522 3.44C30.3855 1.44 32.7989 0.439998 35.8922 0.439998C37.4922 0.439998 38.9055 0.706665 40.1322 1.24C41.3589 1.74667 42.3855 2.46667 43.2122 3.4C44.0389 4.30667 44.6655 5.38667 45.0922 6.64C45.5189 7.86667 45.7322 9.18667 45.7322 10.6V11.08H42.3722V10.6C42.3455 9.69333 42.1989 8.81333 41.9322 7.96C41.6922 7.10667 41.3055 6.36 40.7722 5.72C40.2655 5.05333 39.6122 4.53333 38.8122 4.16C38.0122 3.76 37.0389 3.56 35.8922 3.56C33.7322 3.56 32.1055 4.34667 31.0122 5.92C29.9455 7.49333 29.4122 9.56 29.4122 12.12V17.88C29.4122 20.6267 29.9455 22.7467 31.0122 24.24C32.1055 25.7067 33.7322 26.44 35.8922 26.44ZM50.7844 9.16H57.0244V0.999998H60.1444V9.16H67.8244V12.04H60.1444V24.92C60.1444 25.72 60.5044 26.12 61.2244 26.12H66.8644V29H60.1044C59.1977 29 58.451 28.7067 57.8644 28.12C57.3044 27.5333 57.0244 26.7867 57.0244 25.88V12.04H50.7844V9.16ZM80.0766 14.28C80.0766 15.24 80.4766 15.9733 81.2766 16.48C82.1032 16.9867 83.5966 17.32 85.7566 17.48C88.0766 17.6667 89.8366 18.2267 91.0366 19.16C92.2632 20.0667 92.8766 21.4 92.8766 23.16V23.4C92.8766 24.36 92.6766 25.2267 92.2766 26C91.9032 26.7467 91.3699 27.3867 90.6766 27.92C90.0099 28.4533 89.1832 28.8533 88.1966 29.12C87.2366 29.4133 86.1832 29.56 85.0366 29.56C83.4899 29.56 82.1566 29.36 81.0366 28.96C79.9432 28.5333 79.0232 27.9867 78.2766 27.32C77.5566 26.6267 77.0099 25.8533 76.6366 25C76.2632 24.12 76.0499 23.24 75.9966 22.36L78.9566 21.64C79.0899 23.16 79.6766 24.3867 80.7166 25.32C81.7566 26.2267 83.1432 26.68 84.8766 26.68C86.3432 26.68 87.5166 26.4 88.3966 25.84C89.3032 25.2533 89.7566 24.44 89.7566 23.4C89.7566 22.28 89.3166 21.48 88.4366 21C87.5566 20.52 86.1299 20.2133 84.1566 20.08C81.8632 19.92 80.1032 19.3867 78.8766 18.48C77.6499 17.5733 77.0366 16.2533 77.0366 14.52V14.28C77.0366 13.3467 77.2366 12.5333 77.6366 11.84C78.0366 11.12 78.5699 10.52 79.2366 10.04C79.9299 9.56 80.7032 9.2 81.5566 8.96C82.4099 8.72 83.3032 8.6 84.2366 8.6C85.5432 8.6 86.6899 8.78667 87.6766 9.16C88.6632 9.50667 89.4899 9.97333 90.1566 10.56C90.8232 11.12 91.3299 11.7733 91.6766 12.52C92.0499 13.2667 92.2899 14.0133 92.3966 14.76L89.4366 15.48C89.3032 14.2 88.7832 13.2 87.8766 12.48C86.9966 11.76 85.8366 11.4 84.3966 11.4C83.8366 11.4 83.2899 11.4667 82.7566 11.6C82.2499 11.7067 81.7966 11.88 81.3966 12.12C80.9966 12.36 80.6766 12.6667 80.4366 13.04C80.1966 13.3867 80.0766 13.8 80.0766 14.28Z" fill="white"/>
</svg>
